STARTFONT 2.1
COMMENT
COMMENT Converted from OpenType font "Q:\font stuff\winfont\GosmickSans.ttf" by "otf2bdf 3.0".
COMMENT
FONT -FreeType-GosmickSans-Medium-R-Normal--30-300-72-72-P-132-ISO10646-1
SIZE 30 72 72
FONTBOUNDINGBOX 37 37 -5 -8
STARTPROPERTIES 19
FOUNDRY "FreeType"
FAMILY_NAME "GosmickSans"
WEIGHT_NAME "Medium"
SLANT "R"
SETWIDTH_NAME "Normal"
ADD_STYLE_NAME ""
PIXEL_SIZE 22
POINT_SIZE 300
RESOLUTION_X 72
RESOLUTION_Y 72
SPACING "P"
AVERAGE_WIDTH 132
CHARSET_REGISTRY "ISO10646"
CHARSET_ENCODING "1"
FONT_ASCENT 28
FONT_DESCENT 6
COPYRIGHT "Copyright (c) Graham Meade, 2003. All rights reserved."
_OTF_FONTFILE "Q:\font stuff\winfont\GosmickSans.ttf"
_OTF_PSNAME "GosmickSans"
ENDPROPERTIES
CHARS 220
STARTCHAR 0008
ENCODING 8
SWIDTH 300 0
DWIDTH 9 0
BBX 8 7 1 15
BITMAP
3C
7E
E7
C3
C6
6E
38
ENDCHAR
STARTCHAR 001A
ENCODING 26
SWIDTH 466 0
DWIDTH 14 0
BBX 0 0 0 0
BITMAP
ENDCHAR
STARTCHAR 001B
ENCODING 27
SWIDTH 466 0
DWIDTH 14 0
BBX 0 0 0 0
BITMAP
ENDCHAR
STARTCHAR 0020
ENCODING 32
SWIDTH 266 0
DWIDTH 8 0
BBX 0 0 0 0
BITMAP
ENDCHAR
STARTCHAR 0021
ENCODING 33
SWIDTH 200 0
DWIDTH 6 0
BBX 4 22 1 -1
BITMAP
60
F0
F0
F0
E0
E0
E0
E0
E0
E0
E0
E0
E0
E0
E0
40
00
00
40
F0
F0
70
ENDCHAR
STARTCHAR 0022
ENCODING 34
SWIDTH 400 0
DWIDTH 12 0
BBX 10 8 1 15
BITMAP
0080
61C0
E3C0
E3C0
E380
E180
6180
4100
ENDCHAR
STARTCHAR 0023
ENCODING 35
SWIDTH 566 0
DWIDTH 17 0
BBX 15 17 1 1
BITMAP
0630
0630
0630
0630
0E70
7FFE
7FFC
0C60
0C60
0CE0
FFFC
FFF8
18C0
18C0
19C0
19C0
1880
ENDCHAR
STARTCHAR 0024
ENCODING 36
SWIDTH 533 0
DWIDTH 16 0
BBX 14 22 1 0
BITMAP
0300
0300
0FF0
3FF0
3B30
7300
6300
6300
7300
3F00
1FF0
03F8
03FC
033C
031C
030C
630C
E31C
7F38
3FF0
0F80
0300
ENDCHAR
STARTCHAR 0025
ENCODING 37
SWIDTH 766 0
DWIDTH 23 0
BBX 21 21 1 0
BITMAP
1E0180
7F0380
638700
C18600
C18E00
C18C00
C19C00
E31800
7F3800
3C3000
007000
0061E0
00E7F0
00C638
01CC18
018C18
038C18
030C18
070E30
0607F0
0603C0
ENDCHAR
STARTCHAR 0026
ENCODING 38
SWIDTH 666 0
DWIDTH 20 0
BBX 20 20 1 0
BITMAP
07C000
0EE000
187000
187000
1C7000
1DE000
0FC000
0F8000
1E0000
3C0000
700000
600300
E00700
E00700
E00F00
E01F00
703FC0
7CF9E0
3FF0F0
0FC070
ENDCHAR
STARTCHAR 0027
ENCODING 39
SWIDTH 166 0
DWIDTH 5 0
BBX 3 7 1 15
BITMAP
60
E0
E0
E0
E0
60
40
ENDCHAR
STARTCHAR 0028
ENCODING 40
SWIDTH 300 0
DWIDTH 9 0
BBX 8 27 1 -4
BITMAP
06
0C
1C
38
38
70
70
60
60
E0
E0
E0
E0
E0
E0
E0
E0
E0
70
70
70
38
3C
1C
1E
0F
06
ENDCHAR
STARTCHAR 0029
ENCODING 41
SWIDTH 300 0
DWIDTH 9 0
BBX 8 27 1 -4
BITMAP
60
70
38
38
1C
1C
0C
0E
0E
06
06
07
07
07
07
06
06
0E
0E
0E
1C
1C
3C
78
70
F0
40
ENDCHAR
STARTCHAR 002A
ENCODING 42
SWIDTH 366 0
DWIDTH 11 0
BBX 9 10 1 12
BITMAP
0C00
0C00
CD80
FB80
3F00
3E00
FB80
CD80
0C00
0C00
ENDCHAR
STARTCHAR 002B
ENCODING 43
SWIDTH 533 0
DWIDTH 16 0
BBX 14 14 1 2
BITMAP
0300
0300
0300
0300
0300
0300
7FFC
FFF8
0300
0300
0300
0300
0300
0300
ENDCHAR
STARTCHAR 002C
ENCODING 44
SWIDTH 200 0
DWIDTH 6 0
BBX 4 8 1 -4
BITMAP
60
F0
F0
70
70
E0
E0
C0
ENDCHAR
STARTCHAR 002D
ENCODING 45
SWIDTH 433 0
DWIDTH 13 0
BBX 11 2 1 8
BITMAP
FFE0
FFC0
ENDCHAR
STARTCHAR 002E
ENCODING 46
SWIDTH 200 0
DWIDTH 6 0
BBX 4 4 1 0
BITMAP
60
F0
F0
60
ENDCHAR
STARTCHAR 002F
ENCODING 47
SWIDTH 433 0
DWIDTH 13 0
BBX 11 22 1 0
BITMAP
0020
00E0
00C0
01C0
0180
0180
0380
0300
0700
0600
0600
0E00
0C00
1C00
1800
1800
3000
3000
7000
6000
E000
C000
ENDCHAR
STARTCHAR 0030
ENCODING 48
SWIDTH 600 0
DWIDTH 18 0
BBX 16 21 1 0
BITMAP
03E0
0FF0
1C38
381C
300E
6006
6007
6007
E007
E007
E007
E007
E007
6007
700E
700E
781E
3C3C
1FF8
0FF0
07E0
ENDCHAR
STARTCHAR 0031
ENCODING 49
SWIDTH 300 0
DWIDTH 9 0
BBX 7 21 1 -1
BITMAP
0C
3E
7E
FE
0E
0E
0E
0C
1C
1C
1C
1C
1C
1C
1C
1C
1C
1C
1C
1E
3E
ENDCHAR
STARTCHAR 0032
ENCODING 50
SWIDTH 566 0
DWIDTH 17 0
BBX 15 21 1 0
BITMAP
07C0
1FE0
78F0
F078
E038
C038
0038
0078
0070
00E0
01E0
03C0
0780
0F00
1E00
1C00
3800
7000
7FFC
FFFE
7FFC
ENDCHAR
STARTCHAR 0033
ENCODING 51
SWIDTH 566 0
DWIDTH 17 0
BBX 15 21 1 -1
BITMAP
0FC0
3FF0
7CF0
6078
4038
0038
0038
0070
07E0
0FE0
0FF8
003C
001E
000E
000E
400E
E00E
F01C
7C7C
3FF8
0FE0
ENDCHAR
STARTCHAR 0034
ENCODING 52
SWIDTH 633 0
DWIDTH 19 0
BBX 17 21 1 0
BITMAP
018000
038000
038000
038000
070000
070000
063800
0E3800
0C3800
1C3800
383800
383800
703800
FFFF80
FFFF80
FFFF00
003800
003800
003800
003800
001000
ENDCHAR
STARTCHAR 0035
ENCODING 53
SWIDTH 533 0
DWIDTH 16 0
BBX 14 22 1 -2
BITMAP
3FFC
7FFC
7FF0
7000
6000
6000
6000
E7C0
FFF0
FFF8
F87C
E03C
001C
001C
000C
001C
001C
E01C
E038
7FF0
7FE0
1FC0
ENDCHAR
STARTCHAR 0036
ENCODING 54
SWIDTH 566 0
DWIDTH 17 0
BBX 15 20 1 1
BITMAP
01F8
07F0
1F00
1C00
3800
7000
7000
F7E0
EFF8
F83C
F01E
E01E
E00E
E00E
E00E
701E
7C3C
3FF8
1FF0
07E0
ENDCHAR
STARTCHAR 0037
ENCODING 55
SWIDTH 533 0
DWIDTH 16 0
BBX 15 21 1 0
BITMAP
7FFC
FFFE
FFFC
001C
0038
0070
0070
00E0
00E0
01C0
01C0
03C0
0380
0380
0700
0700
0F00
0E00
1E00
1C00
1800
ENDCHAR
STARTCHAR 0038
ENCODING 56
SWIDTH 566 0
DWIDTH 17 0
BBX 15 21 1 0
BITMAP
07C0
1FF0
3878
7038
6038
6038
6038
7070
3DE0
1FE0
3FF8
783C
701C
E00E
E00E
E00E
E00E
701C
7838
3FF0
0FC0
ENDCHAR
STARTCHAR 0039
ENCODING 57
SWIDTH 566 0
DWIDTH 17 0
BBX 15 21 1 0
BITMAP
07C0
1FF0
3878
701C
601C
E01E
E01E
E01E
E01E
F03E
787E
3FEE
1FCE
001C
001C
0038
0078
00F0
1FE0
1FC0
1F00
ENDCHAR
STARTCHAR 003A
ENCODING 58
SWIDTH 200 0
DWIDTH 6 0
BBX 4 13 1 0
BITMAP
60
F0
F0
70
00
00
00
00
00
60
F0
F0
60
ENDCHAR
STARTCHAR 003B
ENCODING 59
SWIDTH 200 0
DWIDTH 6 0
BBX 4 17 1 -4
BITMAP
60
F0
F0
60
00
00
00
00
00
60
F0
F0
70
70
60
E0
C0
ENDCHAR
STARTCHAR 003C
ENCODING 60
SWIDTH 500 0
DWIDTH 15 0
BBX 13 12 1 4
BITMAP
0038
00F8
03F0
1F80
7E00
F000
F800
7E00
0FC0
03F0
0078
0010
ENDCHAR
STARTCHAR 003D
ENCODING 61
SWIDTH 533 0
DWIDTH 16 0
BBX 14 7 1 5
BITMAP
7FFC
FFFC
0000
0000
0000
7FFC
FFF8
ENDCHAR
STARTCHAR 003E
ENCODING 62
SWIDTH 500 0
DWIDTH 15 0
BBX 13 12 1 4
BITMAP
E000
F800
7E00
0FC0
03F0
0078
00F8
07F0
1F80
7E00
F000
C000
ENDCHAR
STARTCHAR 003F
ENCODING 63
SWIDTH 466 0
DWIDTH 14 0
BBX 12 21 1 1
BITMAP
3F80
7FC0
E1E0
C0F0
C070
C070
0070
00E0
01E0
03C0
0F00
1E00
1C00
1C00
1C00
0000
0000
0800
1C00
1C00
0C00
ENDCHAR
STARTCHAR 0040
ENCODING 64
SWIDTH 633 0
DWIDTH 19 0
BBX 17 17 1 2
BITMAP
07F800
1E3C00
300600
200300
603300
47F100
CC3180
CC3180
C83180
CC3180
CC7B00
C7DE00
600000
600000
300180
0C0700
03F800
ENDCHAR
STARTCHAR 0041
ENCODING 65
SWIDTH 633 0
DWIDTH 19 0
BBX 17 21 1 0
BITMAP
00E000
01E000
01F000
03F000
03F000
073800
073800
0E3800
0E1C00
0C1C00
1C1C00
1C0E00
3FFE00
3FFE00
301F00
700700
600700
E00780
E00380
C00380
800180
ENDCHAR
STARTCHAR 0042
ENCODING 66
SWIDTH 600 0
DWIDTH 18 0
BBX 16 22 1 -1
BITMAP
0FC0
7FF0
F878
703C
701C
701C
7038
7038
70F0
7FE0
7FF8
787E
700F
7007
7007
7007
7007
700F
783E
7FFC
3FF0
0380
ENDCHAR
STARTCHAR 0043
ENCODING 67
SWIDTH 600 0
DWIDTH 18 0
BBX 16 21 1 -1
BITMAP
01E0
07FC
1FFE
3C0F
3807
7007
7000
6000
E000
E000
E000
E000
E000
E000
F000
7003
7807
3C0E
3F7E
1FFC
07F0
ENDCHAR
STARTCHAR 0044
ENCODING 68
SWIDTH 633 0
DWIDTH 19 0
BBX 17 21 1 0
BITMAP
7FC000
FFF000
707C00
701E00
700E00
700700
700700
700380
700380
700380
700380
700380
700380
700780
700700
700F00
700E00
783E00
7FFC00
7FF000
0FC000
ENDCHAR
STARTCHAR 0045
ENCODING 69
SWIDTH 533 0
DWIDTH 16 0
BBX 14 21 1 0
BITMAP
1FF8
FFF8
FE00
7000
7000
7000
7000
7000
70F8
7FF8
7FE0
7000
7000
7000
7000
7000
7000
700C
7FFC
7FFC
1FF0
ENDCHAR
STARTCHAR 0046
ENCODING 70
SWIDTH 466 0
DWIDTH 14 0
BBX 12 21 1 0
BITMAP
7FF0
FFF0
FFE0
F000
7000
7000
7000
7000
7000
7FF0
7FE0
7000
7000
7000
7000
7000
7000
7000
7000
7000
7000
ENDCHAR
STARTCHAR 0047
ENCODING 71
SWIDTH 633 0
DWIDTH 19 0
BBX 18 22 1 0
BITMAP
03FC00
07FF00
1F0F80
1C0380
380380
780100
700000
700000
E00000
E00000
E0FF80
E0FF80
E0FFC0
E00180
E00380
F00380
700380
780700
3C0F00
1FFE00
0FFC00
03E000
ENDCHAR
STARTCHAR 0048
ENCODING 72
SWIDTH 600 0
DWIDTH 18 0
BBX 17 21 1 0
BITMAP
600380
E00700
E00700
E00700
E00700
E00700
E00700
E00700
E00700
FFFF00
FFFF00
FC0700
E00700
E00700
E00700
E00700
E00700
E00700
E00700
E00700
C00300
ENDCHAR
STARTCHAR 0049
ENCODING 73
SWIDTH 266 0
DWIDTH 8 0
BBX 6 21 1 -1
BITMAP
FC
FC
F8
70
70
70
70
70
70
70
70
70
70
70
70
70
70
70
78
7C
FC
ENDCHAR
STARTCHAR 004A
ENCODING 74
SWIDTH 466 0
DWIDTH 14 0
BBX 12 22 1 -1
BITMAP
00E0
03F0
01F0
00E0
00E0
00E0
00E0
00E0
00E0
00E0
00E0
00E0
00E0
00E0
00E0
00E0
E0E0
E0E0
F0C0
7FC0
3F80
0F00
ENDCHAR
STARTCHAR 004B
ENCODING 75
SWIDTH 566 0
DWIDTH 17 0
BBX 15 21 1 0
BITMAP
4008
601C
E038
E070
E0E0
E1C0
E380
E700
EE00
FC00
FC00
FE00
EF00
E780
E3C0
E1E0
E0F0
E078
E03E
E01E
6006
ENDCHAR
STARTCHAR 004C
ENCODING 76
SWIDTH 500 0
DWIDTH 15 0
BBX 13 21 1 -1
BITMAP
6000
F000
F000
F000
E000
E000
E000
E000
E000
E000
E000
E000
E000
E000
E000
E000
E000
E000
F030
7FF8
7FF0
ENDCHAR
STARTCHAR 004D
ENCODING 77
SWIDTH 766 0
DWIDTH 23 0
BBX 21 21 1 0
BITMAP
3800E0
7C01E0
7C03E0
7E03E0
7E03F0
7E03F0
7E0770
770770
670770
670E70
638E30
638E30
638C38
E1DC38
E1DC38
E1F838
E0F838
E0F838
E0F038
E07038
C06030
ENDCHAR
STARTCHAR 004E
ENCODING 78
SWIDTH 633 0
DWIDTH 19 0
BBX 17 21 1 1
BITMAP
600380
F00380
F80380
F80380
FC0380
FC0380
EE0380
E70380
E70380
E38380
E1C380
E1C380
E0E380
E07380
E07380
E03B80
E01F80
E01F80
E00F80
C00700
C00000
ENDCHAR
STARTCHAR 004F
ENCODING 79
SWIDTH 666 0
DWIDTH 20 0
BBX 18 21 1 0
BITMAP
01F000
07FC00
1E0E00
180300
380380
700180
7001C0
6001C0
E001C0
E000C0
E000C0
E001C0
E001C0
F001C0
F00180
780380
780700
3E0F00
1FFE00
0FF800
03E000
ENDCHAR
STARTCHAR 0050
ENCODING 80
SWIDTH 566 0
DWIDTH 17 0
BBX 15 21 1 0
BITMAP
3FE0
FFF8
F83C
701E
700E
700E
700E
700E
701C
703C
70F8
7FF0
7FC0
7000
7000
7000
7000
7000
7000
7000
3000
ENDCHAR
STARTCHAR 0051
ENCODING 81
SWIDTH 666 0
DWIDTH 20 0
BBX 21 26 1 -5
BITMAP
01F000
07FC00
1E0E00
180300
380380
700180
7001C0
6001C0
E001C0
E000C0
E000C0
E081C0
E1C1C0
F0E1C0
F07180
787B80
783F00
3E1F00
1FFE00
0FFE00
03FE00
000708
0003B8
0001F8
0001F0
000040
ENDCHAR
STARTCHAR 0052
ENCODING 82
SWIDTH 600 0
DWIDTH 18 0
BBX 16 21 1 0
BITMAP
3FE0
FFF8
FCFC
701E
700E
700E
700E
700E
701C
7078
7FF0
7FC0
7F80
77C0
73E0
70F0
7078
703C
701E
700F
3003
ENDCHAR
STARTCHAR 0053
ENCODING 83
SWIDTH 566 0
DWIDTH 17 0
BBX 16 21 1 -1
BITMAP
07E0
1FF8
3C78
7018
E010
E000
F000
7800
7F00
3FF0
0FFC
007E
001E
000F
0007
0006
C00E
E01E
FCFC
7FF8
1FE0
ENDCHAR
STARTCHAR 0054
ENCODING 84
SWIDTH 600 0
DWIDTH 18 0
BBX 16 21 1 0
BITMAP
7FFF
FFFF
FFFE
0380
0380
0380
0380
0380
0380
0380
0380
0380
0380
0380
0380
0380
0380
0380
0380
0380
0100
ENDCHAR
STARTCHAR 0055
ENCODING 85
SWIDTH 633 0
DWIDTH 19 0
BBX 17 21 1 0
BITMAP
600380
E00380
E00380
E00380
E00380
E00380
E00380
E00380
E00780
E00780
E00700
E00700
E00700
E00700
E00700
E00700
700E00
780E00
3C3C00
1FF800
07E000
ENDCHAR
STARTCHAR 0056
ENCODING 86
SWIDTH 600 0
DWIDTH 18 0
BBX 16 21 1 0
BITMAP
C003
E007
E007
E00E
F00E
700E
701C
381C
381C
3818
1C38
1C38
1C30
0E70
0E70
0E60
07E0
07E0
03C0
03C0
0180
ENDCHAR
STARTCHAR 0057
ENCODING 87
SWIDTH 933 0
DWIDTH 28 0
BBX 26 21 1 1
BITMAP
C00C00C0
E01C01C0
E01E01C0
E03E0380
F03E0380
70370380
70770380
70770700
78730700
38638700
38638700
38E38E00
3CE18E00
1CC1CE00
1DC1CC00
1DC1DC00
1F80FC00
0F80FC00
0F80F800
07807800
07007000
ENDCHAR
STARTCHAR 0058
ENCODING 88
SWIDTH 633 0
DWIDTH 19 0
BBX 17 21 1 0
BITMAP
600700
F00700
700E00
381E00
3C1C00
1C3800
0E7000
077000
07E000
03C000
03C000
07E000
07F000
0E7000
1E3800
1C3C00
381E00
780F00
F00F00
E00780
C00380
ENDCHAR
STARTCHAR 0059
ENCODING 89
SWIDTH 600 0
DWIDTH 18 0
BBX 16 21 1 -1
BITMAP
C007
E007
E00E
700E
701C
3818
3C38
1C70
0E70
07E0
07E0
03C0
01C0
01C0
01C0
01C0
01C0
01C0
01C0
03C0
0180
ENDCHAR
STARTCHAR 005A
ENCODING 90
SWIDTH 633 0
DWIDTH 19 0
BBX 17 21 1 0
BITMAP
7FFE00
FFFF00
FFFF00
001E00
003C00
003800
007000
00E000
01E000
01C000
038000
070000
0F0000
0E0000
1C0000
3C0000
380000
700000
FFFF80
FFFF80
7FFF00
ENDCHAR
STARTCHAR 005B
ENCODING 91
SWIDTH 300 0
DWIDTH 9 0
BBX 7 27 1 -4
BITMAP
7E
FE
F8
E0
E0
E0
E0
E0
E0
E0
E0
E0
E0
E0
E0
E0
E0
E0
E0
E0
E0
E0
E0
E0
FE
FE
7E
ENDCHAR
STARTCHAR 005C
ENCODING 92
SWIDTH 433 0
DWIDTH 13 0
BBX 11 22 1 0
BITMAP
C000
E000
7000
7000
3000
3800
1800
1C00
0C00
0C00
0E00
0600
0700
0300
0300
0380
0180
01C0
00C0
00E0
0060
0060
ENDCHAR
STARTCHAR 005D
ENCODING 93
SWIDTH 300 0
DWIDTH 9 0
BBX 7 27 1 -4
BITMAP
FC
FE
3E
0E
0E
0E
0E
0E
0E
0E
0E
0E
0E
0E
0E
0E
0E
0E
0E
0E
0E
0E
0E
0E
7E
FE
7E
ENDCHAR
STARTCHAR 005E
ENCODING 94
SWIDTH 433 0
DWIDTH 13 0
BBX 11 8 1 13
BITMAP
0C00
0E00
1F00
3B80
3B80
71C0
E0E0
E0E0
ENDCHAR
STARTCHAR 005F
ENCODING 95
SWIDTH 700 0
DWIDTH 21 0
BBX 20 2 1 -7
BITMAP
FFFFF0
FFFFE0
ENDCHAR
STARTCHAR 0060
ENCODING 96
SWIDTH 233 0
DWIDTH 7 0
BBX 5 5 1 16
BITMAP
40
E0
F0
78
18
ENDCHAR
STARTCHAR 0061
ENCODING 97
SWIDTH 466 0
DWIDTH 14 0
BBX 12 16 1 -1
BITMAP
0F80
3FC0
7FE0
6070
0070
0070
3FF0
7FF0
F0F0
E070
C070
C070
C070
E0F0
7FF0
3E30
ENDCHAR
STARTCHAR 0062
ENCODING 98
SWIDTH 533 0
DWIDTH 16 0
BBX 14 21 1 0
BITMAP
6000
6000
E000
E000
E000
E000
E3C0
EFE0
FFF0
F838
F038
E01C
E01C
E01C
E01C
E01C
E018
F038
F870
DFE0
CF80
ENDCHAR
STARTCHAR 0063
ENCODING 99
SWIDTH 466 0
DWIDTH 14 0
BBX 12 15 1 -1
BITMAP
0780
1FE0
39E0
7060
6000
E000
E000
E000
E000
E000
E000
7030
7870
3FE0
1FC0
ENDCHAR
STARTCHAR 0064
ENCODING 100
SWIDTH 533 0
DWIDTH 16 0
BBX 14 21 1 0
BITMAP
001C
001C
001C
001C
001C
001C
07DC
1FFC
387C
703C
701C
E01C
E01C
E01C
E01C
E01C
F03C
787C
7FFC
3FFC
0F8C
ENDCHAR
STARTCHAR 0065
ENCODING 101
SWIDTH 500 0
DWIDTH 15 0
BBX 14 15 1 0
BITMAP
0780
1FE0
38F0
7070
6070
E070
E1E0
FFC0
FF00
E000
E008
701C
7838
3FF0
0FC0
ENDCHAR
STARTCHAR 0066
ENCODING 102
SWIDTH 400 0
DWIDTH 12 0
BBX 11 23 1 -1
BITMAP
01C0
07E0
0FE0
0E20
0C00
1C00
1C00
1C00
FFC0
FFC0
1C00
1C00
1C00
1C00
1C00
1C00
1C00
1C00
1C00
1C00
1C00
1C00
0800
ENDCHAR
STARTCHAR 0067
ENCODING 103
SWIDTH 500 0
DWIDTH 15 0
BBX 13 22 1 -6
BITMAP
07D8
1FF8
3EF8
7078
7038
E038
E038
E038
E038
E030
E030
7070
78F0
3FF0
0FB0
0030
6030
6070
7070
7DF0
3FE0
0FC0
ENDCHAR
STARTCHAR 0068
ENCODING 104
SWIDTH 500 0
DWIDTH 15 0
BBX 13 21 1 1
BITMAP
E000
E000
E000
E000
E000
E000
E3C0
E7F0
FC70
F838
F038
F038
E038
E038
E038
E038
E038
E038
E038
E038
C030
ENDCHAR
STARTCHAR 0069
ENCODING 105
SWIDTH 166 0
DWIDTH 5 0
BBX 4 21 1 0
BITMAP
60
F0
E0
60
00
00
60
E0
E0
E0
E0
E0
E0
E0
E0
E0
E0
E0
E0
E0
60
ENDCHAR
STARTCHAR 006A
ENCODING 106
SWIDTH 200 0
DWIDTH 6 0
BBX 9 29 -5 -8
BITMAP
0380
0380
0380
0300
0000
0000
0380
0380
0380
0380
0380
0380
0380
0380
0380
0380
0380
0380
0380
0380
0380
0380
0380
0380
4380
E780
7F00
7F00
3E00
ENDCHAR
STARTCHAR 006B
ENCODING 107
SWIDTH 466 0
DWIDTH 14 0
BBX 13 21 1 0
BITMAP
E000
E000
E000
E000
E000
E000
E070
E0E0
E1C0
E380
E700
FE00
FC00
FE00
EF00
E780
E3C0
E1E0
E0F0
E078
C038
ENDCHAR
STARTCHAR 006C
ENCODING 108
SWIDTH 166 0
DWIDTH 5 0
BBX 3 22 1 0
BITMAP
60
E0
E0
E0
E0
E0
E0
E0
E0
E0
E0
E0
E0
E0
E0
E0
E0
E0
E0
E0
E0
C0
ENDCHAR
STARTCHAR 006D
ENCODING 109
SWIDTH 800 0
DWIDTH 24 0
BBX 22 15 1 0
BITMAP
61C0E0
E7E3F0
EEF638
F87C38
F0781C
F0381C
E0381C
E0381C
E0381C
E0381C
E0381C
E0381C
E0381C
E0381C
60300C
ENDCHAR
STARTCHAR 006E
ENCODING 110
SWIDTH 500 0
DWIDTH 15 0
BBX 13 15 1 0
BITMAP
63E0
E7F0
FC70
F838
F038
F038
F038
E038
E038
E038
E038
E038
E038
E038
C018
ENDCHAR
STARTCHAR 006F
ENCODING 111
SWIDTH 500 0
DWIDTH 15 0
BBX 13 15 1 0
BITMAP
0F80
1FE0
38F0
7070
6038
E038
E038
E038
E038
E038
F070
78F0
7FE0
3FC0
0F80
ENDCHAR
STARTCHAR 0070
ENCODING 112
SWIDTH 500 0
DWIDTH 15 0
BBX 13 22 1 -7
BITMAP
6380
EFE0
FFF0
F870
F038
E038
E038
E038
E038
E038
E038
F030
F8E0
FFE0
EF80
E000
E000
E000
E000
E000
E000
E000
ENDCHAR
STARTCHAR 0071
ENCODING 113
SWIDTH 500 0
DWIDTH 15 0
BBX 13 22 1 -6
BITMAP
07D8
1FF8
3FF8
7078
7038
E038
E038
E038
E038
E038
E038
7078
78F0
3FF0
0FB0
0030
0070
0070
0070
0030
0030
0030
ENDCHAR
STARTCHAR 0072
ENCODING 114
SWIDTH 366 0
DWIDTH 11 0
BBX 10 15 1 0
BITMAP
6380
EFC0
FFC0
F180
F080
E000
E000
E000
E000
E000
E000
E000
E000
E000
C000
ENDCHAR
STARTCHAR 0073
ENCODING 115
SWIDTH 466 0
DWIDTH 14 0
BBX 12 15 1 1
BITMAP
0FC0
3FE0
78E0
6060
6000
7000
7E00
3FC0
07E0
00F0
0070
4070
E0E0
FFC0
3F00
ENDCHAR
STARTCHAR 0074
ENCODING 116
SWIDTH 366 0
DWIDTH 11 0
BBX 10 20 1 0
BITMAP
0C00
1C00
1C00
1C00
1C00
FFC0
FFC0
1C00
1C00
1C00
1C00
1C00
1C00
1C00
1C00
1C00
1C00
1EC0
0FC0
0F80
ENDCHAR
STARTCHAR 0075
ENCODING 117
SWIDTH 466 0
DWIDTH 14 0
BBX 12 15 1 0
BITMAP
6030
E070
E070
E070
E070
E070
E070
E070
E070
E070
E070
F0F0
7FF0
3FF0
1F30
ENDCHAR
STARTCHAR 0076
ENCODING 118
SWIDTH 466 0
DWIDTH 14 0
BBX 12 15 1 -1
BITMAP
C030
C070
E070
E060
60E0
70E0
70C0
71C0
3980
3B80
1B00
1F00
1E00
0E00
0C00
ENDCHAR
STARTCHAR 0077
ENCODING 119
SWIDTH 733 0
DWIDTH 22 0
BBX 20 15 1 1
BITMAP
C06030
E0E070
E0F070
E1F070
E1F0E0
61B8E0
73B8E0
7318C0
7319C0
371DC0
3E1D80
3E0F80
3E0F00
1C0F00
080600
ENDCHAR
STARTCHAR 0078
ENCODING 120
SWIDTH 500 0
DWIDTH 15 0
BBX 13 15 1 0
BITMAP
6018
7070
70F0
38E0
1DC0
1F80
0F00
0F00
0F80
1FC0
39E0
70E0
7070
E038
C010
ENDCHAR
STARTCHAR 0079
ENCODING 121
SWIDTH 500 0
DWIDTH 15 0
BBX 13 23 1 -8
BITMAP
C018
E038
E038
E070
7070
7060
38E0
38E0
18C0
1DC0
1D80
0F80
0F80
0700
0700
0700
0E00
0E00
0C00
1C00
1C00
1C00
0800
ENDCHAR
STARTCHAR 007A
ENCODING 122
SWIDTH 500 0
DWIDTH 15 0
BBX 13 15 1 0
BITMAP
00E0
7FF0
FFF0
00E0
01C0
0380
0380
0700
0E00
1E00
1C00
3800
7800
FFF8
FFF0
ENDCHAR
STARTCHAR 007B
ENCODING 123
SWIDTH 400 0
DWIDTH 12 0
BBX 10 27 1 -3
BITMAP
07C0
0FC0
1E00
1C00
1C00
1C00
1C00
1C00
1C00
1C00
1C00
7800
F000
F000
F800
3C00
1C00
1C00
1C00
1C00
1C00
1C00
1C00
1E00
0FC0
07C0
0180
ENDCHAR
STARTCHAR 007C
ENCODING 124
SWIDTH 166 0
DWIDTH 5 0
BBX 3 27 1 -3
BITMAP
60
E0
E0
E0
E0
E0
E0
E0
E0
E0
E0
E0
E0
E0
E0
E0
E0
E0
E0
E0
E0
E0
E0
E0
E0
E0
40
ENDCHAR
STARTCHAR 007D
ENCODING 125
SWIDTH 400 0
DWIDTH 12 0
BBX 10 27 1 -3
BITMAP
F800
FC00
1E00
0E00
0E00
0E00
0E00
0E00
0E00
0E00
0E00
0780
03C0
03C0
07C0
0F00
0E00
0E00
0E00
0E00
0E00
0E00
0E00
1E00
FC00
F800
6000
ENDCHAR
STARTCHAR 007E
ENCODING 126
SWIDTH 500 0
DWIDTH 15 0
BBX 14 5 1 12
BITMAP
1C00
7E08
FFBC
C7F8
01F0
ENDCHAR
STARTCHAR 00A1
ENCODING 161
SWIDTH 200 0
DWIDTH 6 0
BBX 4 22 1 -3
BITMAP
60
F0
F0
60
00
00
60
70
70
60
60
60
60
60
60
60
E0
E0
E0
E0
E0
E0
ENDCHAR
STARTCHAR 00A2
ENCODING 162
SWIDTH 466 0
DWIDTH 14 0
BBX 12 18 1 0
BITMAP
0070
00E0
07C0
1FE0
39F0
71F0
63E0
E320
E700
E600
E600
EE00
EC00
7C30
7870
3FE0
3FC0
3200
ENDCHAR
STARTCHAR 00A3
ENCODING 163
SWIDTH 566 0
DWIDTH 17 0
BBX 15 21 1 -1
BITMAP
07C0
0FF0
1E3C
380E
300E
7006
7000
3000
3000
3000
7FE0
FFC0
7000
3000
3000
3000
7000
7000
FFFC
FFFE
7FFC
ENDCHAR
STARTCHAR 00A4
ENCODING 164
SWIDTH 466 0
DWIDTH 14 0
BBX 12 13 1 5
BITMAP
4020
EFE0
FFE0
70E0
6060
C070
C070
C070
E060
70E0
7FE0
FF70
4030
ENDCHAR
STARTCHAR 00A5
ENCODING 165
SWIDTH 633 0
DWIDTH 19 0
BBX 17 21 1 0
BITMAP
600380
E00780
700700
700E00
380E00
3C1C00
1C1C00
0E3800
0F7000
077000
3FFE00
3FFE00
01C000
01C000
01C000
3FFF00
3FFE00
01C000
01C000
01C000
018000
ENDCHAR
STARTCHAR 00A6
ENCODING 166
SWIDTH 166 0
DWIDTH 5 0
BBX 3 25 1 -3
BITMAP
60
E0
E0
E0
E0
E0
E0
E0
E0
E0
E0
00
00
00
E0
E0
E0
E0
E0
E0
E0
E0
E0
E0
40
ENDCHAR
STARTCHAR 00A7
ENCODING 167
SWIDTH 433 0
DWIDTH 13 0
BBX 11 20 1 -2
BITMAP
1FC0
3FE0
70C0
E040
E000
F000
7E00
FF80
C7C0
C0E0
F060
7E60
1FE0
07E0
01E0
0060
60E0
61C0
7F80
7F00
ENDCHAR
STARTCHAR 00A8
ENCODING 168
SWIDTH 333 0
DWIDTH 10 0
BBX 8 4 1 18
BITMAP
42
E7
E7
C2
ENDCHAR
STARTCHAR 00A9
ENCODING 169
SWIDTH 633 0
DWIDTH 19 0
BBX 17 18 1 2
BITMAP
03F000
0FFC00
1C0E00
300300
63F180
673980
C61180
C40080
CC0080
CC0080
CC0080
C61980
E73100
63F300
708600
3C1C00
1FF800
07E000
ENDCHAR
STARTCHAR 00AA
ENCODING 170
SWIDTH 433 0
DWIDTH 13 0
BBX 11 12 1 9
BITMAP
0E40
3FE0
73E0
61E0
C0C0
C0C0
C0C0
C0C0
60C0
73C0
3FC0
0040
ENDCHAR
STARTCHAR 00AB
ENCODING 171
SWIDTH 466 0
DWIDTH 14 0
BBX 12 11 1 3
BITMAP
0C30
1C70
38E0
71C0
E380
E380
7380
39C0
3CE0
1C70
0C30
ENDCHAR
STARTCHAR 00AC
ENCODING 172
SWIDTH 566 0
DWIDTH 17 0
BBX 15 6 1 6
BITMAP
7FFE
FFFE
FFFE
0006
0006
0006
ENDCHAR
STARTCHAR 00AE
ENCODING 174
SWIDTH 633 0
DWIDTH 19 0
BBX 17 18 1 2
BITMAP
03F000
0FFC00
1C0E00
31C300
67F180
633980
C31980
C31880
C3F880
C3E080
C3C080
C37180
E33900
631F00
720E00
3C1C00
1FF800
07E000
ENDCHAR
STARTCHAR 00AF
ENCODING 175
SWIDTH 333 0
DWIDTH 10 0
BBX 8 2 1 18
BITMAP
FF
FF
ENDCHAR
STARTCHAR 00B0
ENCODING 176
SWIDTH 333 0
DWIDTH 10 0
BBX 8 8 1 14
BITMAP
3C
66
C3
C3
C3
E6
7E
3C
ENDCHAR
STARTCHAR 00B1
ENCODING 177
SWIDTH 533 0
DWIDTH 16 0
BBX 14 16 1 0
BITMAP
0300
0300
0300
0300
0300
0300
7FFC
FFF8
03F0
0300
0300
0300
0300
3F00
7FFC
7FF8
ENDCHAR
STARTCHAR 00B2
ENCODING 178
SWIDTH 333 0
DWIDTH 10 0
BBX 8 11 1 9
BITMAP
3C
7E
C6
86
0E
0C
18
30
60
FF
FF
ENDCHAR
STARTCHAR 00B3
ENCODING 179
SWIDTH 333 0
DWIDTH 10 0
BBX 8 11 1 10
BITMAP
3C
FE
C6
06
1C
3E
07
83
C7
7E
3C
ENDCHAR
STARTCHAR 00B4
ENCODING 180
SWIDTH 233 0
DWIDTH 7 0
BBX 5 5 1 16
BITMAP
10
38
78
70
C0
ENDCHAR
STARTCHAR 00B6
ENCODING 182
SWIDTH 466 0
DWIDTH 14 0
BBX 0 0 0 0
BITMAP
ENDCHAR
STARTCHAR 00B7
ENCODING 183
SWIDTH 200 0
DWIDTH 6 0
BBX 4 4 1 8
BITMAP
60
F0
F0
60
ENDCHAR
STARTCHAR 00B8
ENCODING 184
SWIDTH 366 0
DWIDTH 11 0
BBX 9 8 1 -7
BITMAP
3000
3800
0E00
0700
0380
8380
FF00
7E00
ENDCHAR
STARTCHAR 00B9
ENCODING 185
SWIDTH 200 0
DWIDTH 6 0
BBX 4 10 1 10
BITMAP
70
F0
30
30
30
30
30
30
30
70
ENDCHAR
STARTCHAR 00BA
ENCODING 186
SWIDTH 366 0
DWIDTH 11 0
BBX 9 9 1 11
BITMAP
1E00
7F00
6300
C180
C180
C180
E300
7F00
3C00
ENDCHAR
STARTCHAR 00BB
ENCODING 187
SWIDTH 466 0
DWIDTH 14 0
BBX 12 11 1 3
BITMAP
C300
E380
71C0
38E0
1C70
1C70
1CE0
39C0
73C0
E380
4300
ENDCHAR
STARTCHAR 00BC
ENCODING 188
SWIDTH 633 0
DWIDTH 19 0
BBX 16 20 2 0
BITMAP
6000
E000
E000
6000
6000
60C0
61C0
61C0
6380
6710
E730
0E30
1C6C
1C6C
38CC
31CC
01FF
00EC
000C
000C
ENDCHAR
STARTCHAR 00BD
ENCODING 189
SWIDTH 666 0
DWIDTH 20 0
BBX 17 20 2 -1
BITMAP
600000
E00000
E00000
600000
600000
60C000
61C000
61C000
638000
671E00
E73F00
0E6300
1C4300
1C0600
380E00
301C00
001800
003000
007F80
007F80
ENDCHAR
STARTCHAR 00BE
ENCODING 190
SWIDTH 700 0
DWIDTH 21 0
BBX 19 21 1 0
BITMAP
3C0000
FE0000
C60000
060000
3C0000
3E0000
070C00
031C00
C33800
F63800
7C7300
00E700
00E600
01C6C0
038CC0
030C80
031880
021FE0
000D80
000080
000080
ENDCHAR
STARTCHAR 00BF
ENCODING 191
SWIDTH 466 0
DWIDTH 14 0
BBX 12 21 1 -4
BITMAP
0300
0780
0380
0000
0000
0000
0380
0380
0380
0780
0E00
3C00
7800
7000
E000
E030
E030
F030
7870
3FE0
1FC0
ENDCHAR
STARTCHAR 00C0
ENCODING 192
SWIDTH 666 0
DWIDTH 20 0
BBX 18 28 1 1
BITMAP
00E000
00E000
007000
003800
001800
000000
000000
006000
00F000
01F000
01F000
03B800
03B800
031800
071C00
061C00
0E0C00
0E0E00
1C0E00
1FFE00
1FFF00
381F00
300700
700380
700380
6003C0
E001C0
C00180
ENDCHAR
STARTCHAR 00C1
ENCODING 193
SWIDTH 666 0
DWIDTH 20 0
BBX 18 28 1 1
BITMAP
003800
007800
007000
00E000
00C000
000000
000000
006000
00F000
01F000
01F000
03B800
03B800
031800
071C00
061C00
0E0C00
0E0E00
1C0E00
1FFE00
1FFF00
381F00
300700
700380
700380
6003C0
E001C0
C00180
ENDCHAR
STARTCHAR 00C2
ENCODING 194
SWIDTH 666 0
DWIDTH 20 0
BBX 18 28 1 1
BITMAP
007000
00F000
00D800
018C00
038C00
000000
000000
006000
00F000
01F000
01F000
03B800
03B800
031800
071C00
061C00
0E0C00
0E0E00
1C0E00
1FFE00
1FFF00
381F00
300700
700380
700380
6003C0
E001C0
C00180
ENDCHAR
STARTCHAR 00C3
ENCODING 195
SWIDTH 666 0
DWIDTH 20 0
BBX 18 27 1 1
BITMAP
01E100
03FF00
023E00
000800
000000
000000
006000
00F000
01F000
01F000
03B800
03B800
031800
071C00
061C00
0E0C00
0E0E00
1C0E00
1FFE00
1FFF00
381F00
300700
700380
700380
6003C0
E001C0
C00180
ENDCHAR
STARTCHAR 00C4
ENCODING 196
SWIDTH 666 0
DWIDTH 20 0
BBX 18 27 1 1
BITMAP
018C00
038C00
038C00
018C00
000000
000000
006000
00F000
01F000
01F000
03B800
03B800
031800
071C00
061C00
0E0C00
0E0E00
1C0E00
1FFE00
1FFF00
381F00
300700
700380
700380
6003C0
E001C0
C00180
ENDCHAR
STARTCHAR 00C5
ENCODING 197
SWIDTH 666 0
DWIDTH 20 0
BBX 18 29 1 0
BITMAP
007800
00DC00
018C00
018C00
018C00
01F800
00F000
000000
006000
00F000
01F000
01F000
03B800
03B800
031800
071C00
061C00
0E0C00
0E0E00
1C0E00
1FFE00
1FFF00
381F00
300700
700380
700380
6003C0
E001C0
C00180
ENDCHAR
STARTCHAR 00C6
ENCODING 198
SWIDTH 1000 0
DWIDTH 30 0
BBX 28 21 1 0
BITMAP
00007FE0
0007FFE0
000FF800
001FC000
001DC000
0039C000
0071C000
0071C000
00E1C3E0
01C1FFE0
01FFFF80
03FFC000
0781C000
0701C000
0E01C000
1C01C000
1C01C000
3801C030
7001FFF0
F001FFF0
E000FFC0
ENDCHAR
STARTCHAR 00C7
ENCODING 199
SWIDTH 600 0
DWIDTH 18 0
BBX 16 28 1 -8
BITMAP
01E0
07FC
1FFE
3C0F
3807
7007
7000
6000
E000
E000
E000
E000
E000
E000
F000
7003
7807
3C0E
3F7E
1FF8
07F0
01C0
00E0
0038
0418
0418
07F8
03F0
ENDCHAR
STARTCHAR 00C8
ENCODING 200
SWIDTH 533 0
DWIDTH 16 0
BBX 14 28 1 1
BITMAP
0600
0700
0780
0380
0080
0000
0000
1FF8
FFF8
FE00
7000
7000
7000
7000
7000
70F8
7FF8
7FE0
7000
7000
7000
7000
7000
7000
700C
7FFC
7FFC
1FF0
ENDCHAR
STARTCHAR 00C9
ENCODING 201
SWIDTH 533 0
DWIDTH 16 0
BBX 14 28 1 1
BITMAP
01C0
03C0
0780
0700
0400
0000
0000
1FF8
FFF8
FE00
7000
7000
7000
7000
7000
70F8
7FF8
7FE0
7000
7000
7000
7000
7000
7000
700C
7FFC
7FFC
1FF0
ENDCHAR
STARTCHAR 00CA
ENCODING 202
SWIDTH 533 0
DWIDTH 16 0
BBX 14 28 1 1
BITMAP
0300
0780
0FC0
0CE0
1860
0000
0000
1FF8
FFF8
FE00
7000
7000
7000
7000
7000
70F8
7FF8
7FE0
7000
7000
7000
7000
7000
7000
700C
7FFC
7FFC
1FF0
ENDCHAR
STARTCHAR 00CB
ENCODING 203
SWIDTH 533 0
DWIDTH 16 0
BBX 14 27 1 1
BITMAP
0C60
1CE0
1CE0
0840
0000
0000
1FF8
FFF8
FE00
7000
7000
7000
7000
7000
70F8
7FF8
7FE0
7000
7000
7000
7000
7000
7000
700C
7FFC
7FFC
1FF0
ENDCHAR
STARTCHAR 00CC
ENCODING 204
SWIDTH 266 0
DWIDTH 8 0
BBX 6 28 1 0
BITMAP
E0
F0
78
38
08
00
00
FC
FC
F8
70
70
70
70
70
70
70
70
70
70
70
70
70
70
70
78
7C
FC
ENDCHAR
STARTCHAR 00CD
ENCODING 205
SWIDTH 266 0
DWIDTH 8 0
BBX 6 28 1 0
BITMAP
18
38
78
70
40
00
00
FC
FC
F8
70
70
70
70
70
70
70
70
70
70
70
70
70
70
70
78
7C
FC
ENDCHAR
STARTCHAR 00CE
ENCODING 206
SWIDTH 266 0
DWIDTH 8 0
BBX 8 28 0 0
BITMAP
18
3C
7E
66
C3
00
00
7E
7E
7C
38
38
38
38
38
38
38
38
38
38
38
38
38
38
38
3C
3E
7E
ENDCHAR
STARTCHAR 00CF
ENCODING 207
SWIDTH 266 0
DWIDTH 8 0
BBX 8 27 0 0
BITMAP
43
E7
E7
42
00
00
7E
7E
7C
38
38
38
38
38
38
38
38
38
38
38
38
38
38
38
3C
3E
7E
ENDCHAR
STARTCHAR 00D0
ENCODING 208
SWIDTH 666 0
DWIDTH 20 0
BBX 18 21 1 0
BITMAP
3FE000
7FFC00
3FFE00
383F00
380F80
380380
3801C0
3801C0
3801C0
3800C0
FFE0C0
FFC0C0
3800C0
3801C0
3801C0
380380
380780
3C0F00
3FFE00
3FFC00
07E000
ENDCHAR
STARTCHAR 00D1
ENCODING 209
SWIDTH 633 0
DWIDTH 19 0
BBX 17 27 1 1
BITMAP
0F8000
1FFC00
08F800
002000
000000
000000
600380
F00380
F80380
F80380
FC0380
FC0380
EE0380
E70380
E70380
E38380
E1C380
E1C380
E0E380
E07380
E07380
E03B80
E01F80
E01F80
E00F80
C00700
C00000
ENDCHAR
STARTCHAR 00D2
ENCODING 210
SWIDTH 666 0
DWIDTH 20 0
BBX 18 28 1 1
BITMAP
038000
03C000
01E000
00E000
002000
000000
000000
01F000
07FC00
1E0E00
180700
380380
700380
7001C0
6001C0
E001C0
E001C0
E001C0
E001C0
E001C0
F00380
F00380
700780
780700
3E1E00
1FFE00
0FF800
03E000
ENDCHAR
STARTCHAR 00D3
ENCODING 211
SWIDTH 666 0
DWIDTH 20 0
BBX 18 28 1 1
BITMAP
006000
00E000
01E000
01C000
010000
000000
000000
01F000
07FC00
1E0E00
180700
380380
700380
7001C0
6001C0
E001C0
E001C0
E001C0
E001C0
E001C0
F00380
F00380
700780
780700
3E1E00
1FFE00
0FF800
03E000
ENDCHAR
STARTCHAR 00D4
ENCODING 212
SWIDTH 666 0
DWIDTH 20 0
BBX 18 28 1 1
BITMAP
00C000
01E000
03F000
073000
061800
000000
000000
01F000
07FC00
1E0E00
180700
380380
700380
7001C0
6001C0
E001C0
E001C0
E001C0
E001C0
E001C0
F00380
F00380
700780
780700
3E1E00
1FFE00
0FF800
03E000
ENDCHAR
STARTCHAR 00D5
ENCODING 213
SWIDTH 666 0
DWIDTH 20 0
BBX 18 27 1 1
BITMAP
078400
0FFC00
08F800
002000
000000
000000
01F000
07FC00
1E0E00
180700
380380
700380
7001C0
6001C0
E001C0
E001C0
E001C0
E001C0
E001C0
F00380
F00380
700780
780700
3E1E00
1FFE00
0FF800
03E000
ENDCHAR
STARTCHAR 00D6
ENCODING 214
SWIDTH 666 0
DWIDTH 20 0
BBX 18 27 1 1
BITMAP
021800
073800
073800
061000
000000
000000
01F000
07FC00
1E0E00
180700
380380
700380
7001C0
6001C0
E001C0
E001C0
E001C0
E001C0
E001C0
F00380
F00380
700780
780700
3E1E00
1FFE00
0FF800
03E000
ENDCHAR
STARTCHAR 00D7
ENCODING 215
SWIDTH 433 0
DWIDTH 13 0
BBX 11 12 1 2
BITMAP
0020
E060
F0E0
79C0
3F80
1F00
0F00
1F80
3BC0
71E0
E0E0
4060
ENDCHAR
STARTCHAR 00D8
ENCODING 216
SWIDTH 666 0
DWIDTH 20 0
BBX 18 27 1 -3
BITMAP
000300
000700
00EE00
07FE00
0FFE00
1F1F00
3C1B80
381B80
703180
7031C0
E061C0
E061C0
E061C0
E0C1C0
E0C1C0
E181C0
E18180
718380
730380
7B0700
3E1E00
1FFE00
0FF800
1FE000
1C0000
180000
180000
ENDCHAR
STARTCHAR 00D9
ENCODING 217
SWIDTH 633 0
DWIDTH 19 0
BBX 17 28 1 1
BITMAP
038000
038000
01C000
00E000
006000
000000
000000
600380
E00380
E00380
E00380
E00380
E00380
E00380
E00380
E00780
E00780
E00700
E00700
E00700
E00700
E00700
E00700
700E00
780E00
3C3C00
1FF800
07E000
ENDCHAR
STARTCHAR 00DA
ENCODING 218
SWIDTH 633 0
DWIDTH 19 0
BBX 17 28 1 1
BITMAP
00E000
00E000
01C000
038000
030000
000000
000000
600380
E00380
E00380
E00380
E00380
E00380
E00380
E00380
E00780
E00780
E00700
E00700
E00700
E00700
E00700
E00700
700E00
780E00
3C3C00
1FF800
07E000
ENDCHAR
STARTCHAR 00DB
ENCODING 219
SWIDTH 633 0
DWIDTH 19 0
BBX 17 28 1 1
BITMAP
01C000
01C000
036000
063000
063000
000000
000000
600380
E00380
E00380
E00380
E00380
E00380
E00380
E00380
E00780
E00780
E00700
E00700
E00700
E00700
E00700
E00700
700E00
780E00
3C3C00
1FF800
07E000
ENDCHAR
STARTCHAR 00DC
ENCODING 220
SWIDTH 633 0
DWIDTH 19 0
BBX 17 27 1 1
BITMAP
063000
063000
063000
063000
000000
000000
600380
E00380
E00380
E00380
E00380
E00380
E00380
E00380
E00780
E00780
E00700
E00700
E00700
E00700
E00700
E00700
700E00
780E00
3C3C00
1FF800
07E000
ENDCHAR
STARTCHAR 00DD
ENCODING 221
SWIDTH 633 0
DWIDTH 19 0
BBX 17 28 1 0
BITMAP
00E000
01E000
01C000
038000
020000
000000
000000
600380
E00700
700700
700E00
380E00
3C1C00
1C1800
0E3800
0F7000
077000
03E000
01E000
01C000
01C000
01C000
01C000
01C000
01C000
01C000
01C000
018000
ENDCHAR
STARTCHAR 00DE
ENCODING 222
SWIDTH 533 0
DWIDTH 16 0
BBX 14 21 1 0
BITMAP
6000
E000
E000
EF00
FFE0
F0F0
F038
E01C
E01C
E01C
E01C
E018
E038
E0F0
FFC0
FF00
E000
E000
E000
E000
4000
ENDCHAR
STARTCHAR 00DF
ENCODING 223
SWIDTH 500 0
DWIDTH 15 0
BBX 13 22 1 -1
BITMAP
1F00
3F80
7180
6180
E180
E180
C700
CE00
CC00
CC00
CFC0
C7E0
C0F0
C038
C038
C018
C818
D830
DC70
CFE0
C7C0
C000
ENDCHAR
STARTCHAR 00E0
ENCODING 224
SWIDTH 466 0
DWIDTH 14 0
BBX 12 22 1 0
BITMAP
0C00
1E00
0F00
0700
0300
0000
0F80
3FC0
7FE0
6070
0070
0070
3FF0
7FF0
F0F0
E070
C070
C070
C070
E0F0
7FF0
3E30
ENDCHAR
STARTCHAR 00E1
ENCODING 225
SWIDTH 466 0
DWIDTH 14 0
BBX 12 22 1 0
BITMAP
0300
0780
0700
0E00
0C00
0000
0F80
3FC0
7FE0
6070
0070
0070
3FF0
7FF0
F0F0
E070
C070
C070
C070
E0F0
7FF0
3E30
ENDCHAR
STARTCHAR 00E2
ENCODING 226
SWIDTH 466 0
DWIDTH 14 0
BBX 12 22 1 0
BITMAP
0600
0F00
1F80
19C0
30C0
0000
0F80
3FC0
7FE0
6070
0070
0070
3FF0
7FF0
F0F0
E070
C070
C070
C070
E0F0
7FF0
3E30
ENDCHAR
STARTCHAR 00E3
ENCODING 227
SWIDTH 466 0
DWIDTH 14 0
BBX 12 21 1 0
BITMAP
3C00
7E60
67E0
0180
0000
0F80
3FC0
7FE0
6070
0070
0070
3FF0
7FF0
F0F0
E070
C070
C070
C070
E0F0
7FF0
3E30
ENDCHAR
STARTCHAR 00E4
ENCODING 228
SWIDTH 466 0
DWIDTH 14 0
BBX 12 21 1 0
BITMAP
10C0
39C0
39C0
1080
0000
0F80
3FC0
7FE0
6070
0070
0070
3FF0
7FF0
F0F0
E070
C070
C070
C070
E0F0
7FF0
3E30
ENDCHAR
STARTCHAR 00E5
ENCODING 229
SWIDTH 466 0
DWIDTH 14 0
BBX 12 23 1 -1
BITMAP
0F00
1F80
39C0
30C0
39C0
1F80
0F00
0F80
3FC0
7FE0
6070
0070
0070
3FF0
7FF0
F0F0
E070
C070
C070
C070
E0F0
7FF0
3E30
ENDCHAR
STARTCHAR 00E6
ENCODING 230
SWIDTH 833 0
DWIDTH 25 0
BBX 23 15 1 0
BITMAP
1FC3E0
7FEFF0
607C38
007818
007818
3FF038
7FF0F8
70FFF0
E07F80
C07000
C07802
C0780E
E0FC1C
7FCFF8
3F07E0
ENDCHAR
STARTCHAR 00E7
ENCODING 231
SWIDTH 466 0
DWIDTH 14 0
BBX 12 22 1 -6
BITMAP
0F80
1FE0
38E0
7060
6000
E000
E000
E000
E000
E000
E000
7030
78F0
3FE0
0FC0
0700
01C0
00E0
1070
1060
1FE0
0780
ENDCHAR
STARTCHAR 00E8
ENCODING 232
SWIDTH 500 0
DWIDTH 15 0
BBX 14 22 1 1
BITMAP
0C00
0E00
0700
0380
0180
0000
0000
0780
1FE0
38F0
7070
6070
E070
E1E0
FFC0
FF00
E000
E008
701C
7838
3FF0
0FC0
ENDCHAR
STARTCHAR 00E9
ENCODING 233
SWIDTH 500 0
DWIDTH 15 0
BBX 14 22 1 1
BITMAP
0180
0380
0780
0700
0C00
0000
0000
0780
1FE0
38F0
7070
6070
E070
E1E0
FFC0
FF00
E000
E008
701C
7838
3FF0
0FC0
ENDCHAR
STARTCHAR 00EA
ENCODING 234
SWIDTH 500 0
DWIDTH 15 0
BBX 14 22 1 1
BITMAP
0300
0780
0F80
1CC0
1860
0000
0000
0780
1FE0
38F0
7070
6070
E070
E1E0
FFC0
FF00
E000
E008
701C
7838
3FF0
0FC0
ENDCHAR
STARTCHAR 00EB
ENCODING 235
SWIDTH 500 0
DWIDTH 15 0
BBX 14 21 1 1
BITMAP
18C0
18E0
18E0
18C0
0000
0000
0780
1FE0
38F0
7070
6070
E070
E1E0
FFC0
FF00
E000
E008
701C
7838
3FF0
0FC0
ENDCHAR
STARTCHAR 00EC
ENCODING 236
SWIDTH 166 0
DWIDTH 5 0
BBX 5 22 0 1
BITMAP
E0
F0
70
38
18
00
00
30
30
70
70
70
70
70
70
70
70
70
70
70
70
30
ENDCHAR
STARTCHAR 00ED
ENCODING 237
SWIDTH 166 0
DWIDTH 5 0
BBX 5 22 0 1
BITMAP
18
38
78
70
C0
00
00
30
70
70
70
70
70
70
70
70
70
70
70
70
70
60
ENDCHAR
STARTCHAR 00EE
ENCODING 238
SWIDTH 166 0
DWIDTH 5 0
BBX 8 22 -1 0
BITMAP
18
3C
7C
E6
C3
00
00
18
38
38
38
38
38
38
38
38
38
38
38
38
38
38
ENDCHAR
STARTCHAR 00EF
ENCODING 239
SWIDTH 166 0
DWIDTH 5 0
BBX 8 21 -1 1
BITMAP
C6
C7
C7
C6
00
00
18
38
38
38
38
38
38
38
38
38
38
38
38
38
38
ENDCHAR
STARTCHAR 00F0
ENCODING 240
SWIDTH 500 0
DWIDTH 15 0
BBX 13 20 1 1
BITMAP
0E00
0F80
07C0
01F8
0FF8
1FF0
1870
0030
0FF8
3FF8
7078
6038
E038
E038
E038
E038
F078
7FF0
3FE0
1F80
ENDCHAR
STARTCHAR 00F1
ENCODING 241
SWIDTH 500 0
DWIDTH 15 0
BBX 13 21 1 0
BITMAP
1C00
3F30
63E0
01C0
0000
0000
63E0
E7F0
FC70
F838
F038
F038
F038
E038
E038
E038
E038
E038
E038
E038
C018
ENDCHAR
STARTCHAR 00F2
ENCODING 242
SWIDTH 500 0
DWIDTH 15 0
BBX 13 22 1 1
BITMAP
0C00
0E00
0F00
0780
0180
0000
0000
0F80
1FE0
38F0
7070
6038
E038
E038
E038
E038
E038
F070
78F0
7FE0
3FC0
0F80
ENDCHAR
STARTCHAR 00F3
ENCODING 243
SWIDTH 500 0
DWIDTH 15 0
BBX 13 22 1 1
BITMAP
0180
0380
0700
0E00
0C00
0000
0000
0F80
1FE0
38F0
7070
6038
E038
E038
E038
E038
E038
F070
78F0
7FE0
3FC0
0F80
ENDCHAR
STARTCHAR 00F4
ENCODING 244
SWIDTH 500 0
DWIDTH 15 0
BBX 13 22 1 1
BITMAP
0600
0F00
1F80
19C0
30C0
0000
0000
0F80
1FE0
38F0
7070
6038
E038
E038
E038
E038
E038
F070
78F0
7FE0
3FC0
0F80
ENDCHAR
STARTCHAR 00F5
ENCODING 245
SWIDTH 500 0
DWIDTH 15 0
BBX 13 21 1 1
BITMAP
1C00
3F30
63E0
01C0
0000
0000
0F80
1FE0
38F0
7070
6038
E038
E038
E038
E038
E038
F070
78F0
7FE0
3FC0
0F80
ENDCHAR
STARTCHAR 00F6
ENCODING 246
SWIDTH 500 0
DWIDTH 15 0
BBX 13 21 1 1
BITMAP
18C0
19C0
19C0
1880
0000
0000
0F80
1FE0
38F0
7070
6038
E038
E038
E038
E038
E038
F070
78F0
7FE0
3FC0
0F80
ENDCHAR
STARTCHAR 00F7
ENCODING 247
SWIDTH 566 0
DWIDTH 17 0
BBX 15 13 1 3
BITMAP
0380
0380
0380
0380
0000
7FFE
FFFE
FFFE
0000
0380
0780
0380
0380
ENDCHAR
STARTCHAR 00F8
ENCODING 248
SWIDTH 500 0
DWIDTH 15 0
BBX 13 19 1 -1
BITMAP
0030
0070
07E0
1FE0
3FF0
79F8
71B8
E3B8
E338
E338
E638
E638
F638
7C70
7CF0
3FE0
1F80
3800
3000
ENDCHAR
STARTCHAR 00F9
ENCODING 249
SWIDTH 466 0
DWIDTH 14 0
BBX 12 22 1 0
BITMAP
0C00
0E00
0F00
0700
0380
0000
0000
6030
E070
E070
E070
E070
E070
E070
E070
E070
E070
E070
F0F0
7FF0
3FF0
1F30
ENDCHAR
STARTCHAR 00FA
ENCODING 250
SWIDTH 466 0
DWIDTH 14 0
BBX 12 22 1 0
BITMAP
0300
0780
0700
0E00
0C00
0000
0000
6030
E070
E070
E070
E070
E070
E070
E070
E070
E070
E070
F0F0
7FF0
3FF0
1F30
ENDCHAR
STARTCHAR 00FB
ENCODING 251
SWIDTH 466 0
DWIDTH 14 0
BBX 12 22 1 0
BITMAP
0600
0F00
1D80
19C0
30C0
0000
0000
6030
E070
E070
E070
E070
E070
E070
E070
E070
E070
E070
F0F0
7FF0
3FF0
1F30
ENDCHAR
STARTCHAR 00FC
ENCODING 252
SWIDTH 466 0
DWIDTH 14 0
BBX 12 21 1 0
BITMAP
18C0
39C0
39C0
10C0
0000
0000
6030
E070
E070
E070
E070
E070
E070
E070
E070
E070
E070
F0F0
7FF0
3FF0
1F30
ENDCHAR
STARTCHAR 00FD
ENCODING 253
SWIDTH 533 0
DWIDTH 16 0
BBX 14 29 1 -7
BITMAP
0180
0380
0780
0700
0C00
0000
0000
401C
E01C
E038
7038
7070
3870
3870
18E0
1CE0
1CC0
0FC0
0FC0
0780
0780
0300
0700
0700
0E00
0E00
0E00
0C00
0C00
ENDCHAR
STARTCHAR 00FE
ENCODING 254
SWIDTH 500 0
DWIDTH 15 0
BBX 13 27 1 -7
BITMAP
6000
E000
E000
E000
E000
E7C0
FFE0
FFF0
F878
F038
E038
E038
E038
E038
E038
E038
F030
F8E0
FFC0
EF80
E000
E000
E000
E000
E000
E000
E000
ENDCHAR
STARTCHAR 00FF
ENCODING 255
SWIDTH 533 0
DWIDTH 16 0
BBX 14 28 1 -7
BITMAP
1840
1CE0
1CE0
18C0
0000
0000
401C
E01C
E038
7038
7070
3870
3870
18E0
1CE0
1CC0
0FC0
0FC0
0780
0780
0300
0700
0700
0E00
0E00
0E00
0C00
0C00
ENDCHAR
STARTCHAR 0152
ENCODING 338
SWIDTH 900 0
DWIDTH 27 0
BBX 26 21 1 0
BITMAP
01FFFF00
078FFF80
0C0FC000
18060000
30060000
70060000
600E0000
600E0000
E00E1F00
E00FFF00
E00FFC00
E00E0000
E00E0000
F00E0000
F00E0000
780E0000
780E0000
3E070180
1FFFFFC0
0FFFFF80
03FFFE00
ENDCHAR
STARTCHAR 0153
ENCODING 339
SWIDTH 866 0
DWIDTH 26 0
BBX 24 15 1 0
BITMAP
0F81F0
1FE7F8
387E1C
703C0C
60380C
E0181C
E0187C
E01FF8
E01FC0
E03800
F03C00
787C07
7FEE0E
3FC7FC
0F83F0
ENDCHAR
STARTCHAR 0160
ENCODING 352
SWIDTH 566 0
DWIDTH 17 0
BBX 16 28 1 0
BITMAP
0C30
0E60
07C0
03C0
0180
0000
0000
07E0
1FF8
3C78
7018
6010
E000
F000
7800
7F00
3FF0
0FFC
007E
001E
000F
0007
0006
C00E
E01E
FCFC
7FF8
1FE0
ENDCHAR
STARTCHAR 0161
ENCODING 353
SWIDTH 466 0
DWIDTH 14 0
BBX 12 22 1 1
BITMAP
30C0
39C0
1D80
0F00
0600
0000
0000
0FC0
3FE0
78E0
6060
6000
7000
7E00
3FC0
07E0
00F0
0070
4070
E0E0
FFC0
3F00
ENDCHAR
STARTCHAR 0178
ENCODING 376
SWIDTH 633 0
DWIDTH 19 0
BBX 17 27 1 0
BITMAP
063000
0E3000
0E3000
063000
000000
000000
600380
E00700
700700
700E00
380E00
3C1C00
1C1800
0E3800
0F7000
077000
03E000
01E000
01C000
01C000
01C000
01C000
01C000
01C000
01C000
01C000
018000
ENDCHAR
STARTCHAR 0192
ENCODING 402
SWIDTH 633 0
DWIDTH 19 0
BBX 17 28 1 -7
BITMAP
000300
000F80
001F80
003880
003000
007000
007000
007000
03FE00
07FE00
00E000
00E000
00E000
01C000
01C000
01C000
01C000
01C000
018000
038000
038000
038000
038000
030000
470000
CE0000
FE0000
F80000
ENDCHAR
STARTCHAR 02C6
ENCODING 710
SWIDTH 333 0
DWIDTH 10 0
BBX 8 5 1 17
BITMAP
18
3C
7E
E6
C3
ENDCHAR
STARTCHAR 02DC
ENCODING 732
SWIDTH 400 0
DWIDTH 12 0
BBX 10 4 1 17
BITMAP
3000
FC40
CFC0
0780
ENDCHAR
STARTCHAR 2013
ENCODING 8211
SWIDTH 600 0
DWIDTH 18 0
BBX 16 3 1 6
BITMAP
7E00
FFFF
0FFE
ENDCHAR
STARTCHAR 2014
ENCODING 8212
SWIDTH 966 0
DWIDTH 29 0
BBX 27 2 1 7
BITMAP
7FFFFFE0
FFFFFFC0
ENDCHAR
STARTCHAR 2018
ENCODING 8216
SWIDTH 200 0
DWIDTH 6 0
BBX 4 8 1 14
BITMAP
30
70
70
60
E0
F0
F0
60
ENDCHAR
STARTCHAR 2019
ENCODING 8217
SWIDTH 200 0
DWIDTH 6 0
BBX 4 8 1 14
BITMAP
60
F0
F0
70
70
E0
E0
C0
ENDCHAR
STARTCHAR 201A
ENCODING 8218
SWIDTH 200 0
DWIDTH 6 0
BBX 4 8 1 -4
BITMAP
60
F0
F0
70
70
E0
E0
C0
ENDCHAR
STARTCHAR 201C
ENCODING 8220
SWIDTH 400 0
DWIDTH 12 0
BBX 10 8 1 14
BITMAP
30C0
71C0
71C0
6380
E380
F3C0
F3C0
6180
ENDCHAR
STARTCHAR 201D
ENCODING 8221
SWIDTH 400 0
DWIDTH 12 0
BBX 10 8 1 14
BITMAP
6180
F3C0
F3C0
71C0
7180
E380
E380
C300
ENDCHAR
STARTCHAR 201E
ENCODING 8222
SWIDTH 400 0
DWIDTH 12 0
BBX 10 8 1 -4
BITMAP
6180
F3C0
F3C0
71C0
71C0
E380
E380
C300
ENDCHAR
STARTCHAR 2020
ENCODING 8224
SWIDTH 433 0
DWIDTH 13 0
BBX 11 22 1 -3
BITMAP
0600
0E00
0E00
0E00
7FE0
FFC0
0E00
0E00
0E00
0E00
0E00
0E00
0E00
0E00
0E00
0E00
0E00
0E00
0E00
0E00
0E00
0C00
ENDCHAR
STARTCHAR 2021
ENCODING 8225
SWIDTH 433 0
DWIDTH 13 0
BBX 11 22 1 -3
BITMAP
0600
0E00
0E00
0E00
7FE0
FFC0
0E00
0E00
0E00
0E00
0E00
0E00
0E00
0E00
0E00
0E00
FFE0
FFC0
0E00
0E00
0E00
0C00
ENDCHAR
STARTCHAR 2022
ENCODING 8226
SWIDTH 333 0
DWIDTH 10 0
BBX 8 8 1 6
BITMAP
3C
7E
FF
FF
FF
FF
7E
1C
ENDCHAR
STARTCHAR 2026
ENCODING 8230
SWIDTH 633 0
DWIDTH 19 0
BBX 18 4 1 0
BITMAP
60C380
F1E3C0
F1E3C0
60C180
ENDCHAR
STARTCHAR 2030
ENCODING 8240
SWIDTH 1100 0
DWIDTH 33 0
BBX 31 21 1 0
BITMAP
1E018000
7F038000
63870000
C1860000
C18E0000
C18C0000
C19C0000
E3180000
7F380000
3C300000
00700000
0061E078
00E7F1FC
00C6398E
01CC1B06
018C1B06
038C1B06
030C1B06
070E338C
0607F1FC
0603C0F0
ENDCHAR
STARTCHAR 2039
ENCODING 8249
SWIDTH 266 0
DWIDTH 8 0
BBX 6 11 1 2
BITMAP
0C
1C
38
70
70
E0
70
78
3C
1C
0C
ENDCHAR
STARTCHAR 203A
ENCODING 8250
SWIDTH 266 0
DWIDTH 8 0
BBX 6 11 1 2
BITMAP
C0
E0
70
38
1C
1C
1C
38
70
E0
40
ENDCHAR
STARTCHAR 2122
ENCODING 8482
SWIDTH 766 0
DWIDTH 23 0
BBX 20 12 2 9
BITMAP
FFF060
FFF0E0
1870E0
1878F0
1878B0
1879B0
184DB0
184D30
184F30
184730
18C630
18C210
ENDCHAR
STARTCHAR 2219
ENCODING 8729
SWIDTH 200 0
DWIDTH 6 0
BBX 4 4 1 8
BITMAP
60
F0
F0
60
ENDCHAR
STARTCHAR E000
ENCODING 57344
SWIDTH 633 0
DWIDTH 19 0
BBX 17 21 1 -1
BITMAP
00F800
03FE00
07FF00
0E0780
0C0380
1C0380
1C0100
7FF800
FFF800
380000
380000
380000
FFF000
FFF000
1C0000
1C0180
1C0380
0E0700
0FFF00
07FE00
03F800
ENDCHAR
STARTCHAR E001
ENCODING 57345
SWIDTH 566 0
DWIDTH 17 0
BBX 15 3 1 8
BITMAP
7FFE
FFFE
FFFE
ENDCHAR
STARTCHAR E002
ENCODING 57346
SWIDTH 500 0
DWIDTH 15 0
BBX 13 22 1 -6
BITMAP
6038
F038
F038
E038
E038
E030
E030
E030
E030
E030
F070
F0F0
FFF0
FFE0
FFF0
E070
E018
E000
E000
E000
E000
E000
ENDCHAR
STARTCHAR E003
ENCODING 57347
SWIDTH 466 0
DWIDTH 14 0
BBX 0 0 0 0
BITMAP
ENDCHAR
ENDFONT
